<svg xmlns="http://www.w3.org/2000/svg" width="800" viewBox="0 0 600 187.5" height="250" version="1.0"><defs><clipPath id="a"><path d="M1 17.543h151.762V168H1Zm0 0"/></clipPath></defs><g clip-path="url(#a)"><path fill="#fff" d="M150.836 153.035a5.801 5.801 0 0 0-.813-.797 5.315 5.315 0 0 0-.949-.625 5.71 5.71 0 0 0-2.168-.644 5.818 5.818 0 0 0-2.25.238 6.08 6.08 0 0 0-1.047.441 5.943 5.943 0 0 0-.941.637 15.897 15.897 0 0 1-9.926 3.672 15.887 15.887 0 0 1-3.57-.352l13.726-44.617c.325-1.054.547-2.133.665-3.234a17.344 17.344 0 0 0-1.727-9.633 17.359 17.359 0 0 0-3.992-5.223 17.379 17.379 0 0 0-5.645-3.367l-9.02-3.277V63.945c0-.57-.027-1.136-.081-1.707a17.583 17.583 0 0 0-.254-1.687c-.11-.559-.246-1.11-.414-1.656a16.771 16.771 0 0 0-.575-1.61 17.628 17.628 0 0 0-.73-1.543c-.27-.5-.563-.988-.879-1.465-.316-.472-.656-.93-1.016-1.37a17.655 17.655 0 0 0-1.148-1.266 16.725 16.725 0 0 0-1.266-1.145 15.984 15.984 0 0 0-1.37-1.02 16.281 16.281 0 0 0-1.466-.874c-.5-.27-1.015-.516-1.543-.73a18.298 18.298 0 0 0-1.605-.579c-.547-.164-1.098-.3-1.656-.414a17.834 17.834 0 0 0-1.692-.25 17.752 17.752 0 0 0-1.703-.082h-5.8V34.945c0-.57-.028-1.136-.086-1.707a16.423 16.423 0 0 0-.25-1.687c-.11-.559-.25-1.113-.415-1.656a17.904 17.904 0 0 0-.574-1.61 17.297 17.297 0 0 0-1.61-3.008c-.316-.472-.655-.93-1.015-1.37a17.655 17.655 0 0 0-1.148-1.266 16.725 16.725 0 0 0-1.266-1.145 17.307 17.307 0 0 0-2.836-1.898 17.93 17.93 0 0 0-3.152-1.305 17.57 17.57 0 0 0-5.05-.75H70.98a17.775 17.775 0 0 0-3.394.336 18 18 0 0 0-1.656.414 17.93 17.93 0 0 0-3.153 1.305 17.297 17.297 0 0 0-2.836 1.898 17.68 17.68 0 0 0-2.414 2.41c-.359.442-.699.899-1.015 1.371a17.297 17.297 0 0 0-2.598 6.274 16.423 16.423 0 0 0-.25 1.687c-.059.57-.086 1.137-.086 1.707v11.602h-5.8c-.571 0-1.137.027-1.704.082a17.65 17.65 0 0 0-1.691.25c-.559.113-1.11.25-1.656.414a17.854 17.854 0 0 0-3.153 1.309c-.5.265-.988.558-1.46.875a17.456 17.456 0 0 0-6.41 7.809c-.22.526-.411 1.062-.575 1.609a17.412 17.412 0 0 0-.418 1.656 18.89 18.89 0 0 0-.25 1.687c-.055.57-.082 1.137-.082 1.707v22.309l-8.984 3.266c-1.043.375-2.04.843-2.993 1.41a17.478 17.478 0 0 0-4.925 4.375 17.415 17.415 0 0 0-2.82 15.703l13.73 44.578a15.89 15.89 0 0 1-3.57.355 15.841 15.841 0 0 1-3.56-.46 15.627 15.627 0 0 1-3.366-1.243 15.897 15.897 0 0 1-3-1.968 5.713 5.713 0 0 0-1.989-1.083 5.818 5.818 0 0 0-3.371-.023 5.86 5.86 0 0 0-2.004 1.055 5.883 5.883 0 0 0-1.45 1.738 6.105 6.105 0 0 0-.44 1.05 5.818 5.818 0 0 0-.023 3.367c.109.368.25.72.429 1.056.176.336.383.652.625.949.238.297.504.566.797.812a28.335 28.335 0 0 0 3.922 2.727c.695.394 1.402.762 2.125 1.098.722.336 1.46.636 2.21.91a27.977 27.977 0 0 0 4.617 1.23 28.304 28.304 0 0 0 4.759.414c.797 0 1.593-.035 2.39-.105a27.636 27.636 0 0 0 11.32-3.547 27.926 27.926 0 0 0 2.02-1.281c.656-.453 1.29-.938 1.902-1.446A15.942 15.942 0 0 1 41 159.61a16.09 16.09 0 0 1 5.184-1.879c.91-.16 1.828-.238 2.754-.238a15.865 15.865 0 0 1 5.43.953 15.98 15.98 0 0 1 4.78 2.746c.614.508 1.247.993 1.903 1.446a25.84 25.84 0 0 0 2.02 1.277c.69.399 1.398.766 2.12 1.102.727.332 1.461.636 2.211.91.75.27 1.512.508 2.282.715a28.304 28.304 0 0 0 4.707.824c.793.066 1.59.101 2.386.101a26.969 26.969 0 0 0 4.762-.414 27.868 27.868 0 0 0 2.332-.511 28.596 28.596 0 0 0 2.281-.715c.75-.274 1.489-.578 2.211-.91a26.66 26.66 0 0 0 2.125-1.102c.692-.394 1.367-.82 2.02-1.277a27.271 27.271 0 0 0 1.902-1.446 15.942 15.942 0 0 1 2.27-1.582 16.09 16.09 0 0 1 5.183-1.879c.91-.16 1.832-.238 2.758-.238a15.859 15.859 0 0 1 5.426.953 16.09 16.09 0 0 1 2.512 1.164c.8.461 1.558.989 2.27 1.582a27.02 27.02 0 0 0 1.901 1.446c.653.457 1.329.883 2.02 1.277a26.66 26.66 0 0 0 2.125 1.102c.723.332 1.46.636 2.21.91.75.27 1.509.508 2.282.715a27.868 27.868 0 0 0 4.703.824c.797.066 1.59.101 2.39.101a26.776 26.776 0 0 0 4.758-.414 28.304 28.304 0 0 0 2.337-.511c.77-.207 1.53-.446 2.28-.715.75-.274 1.485-.578 2.212-.91.723-.336 1.43-.703 2.121-1.102a25.91 25.91 0 0 0 2.023-1.277c.653-.453 1.29-.938 1.903-1.446.289-.246.554-.515.793-.812.238-.293.445-.61.62-.95.18-.335.321-.683.427-1.05a5.776 5.776 0 0 0-.465-4.406 5.804 5.804 0 0 0-.633-.938ZM65.18 34.945a5.62 5.62 0 0 1 .441-2.219 5.756 5.756 0 0 1 1.258-1.882 5.72 5.72 0 0 1 2.969-1.586c.375-.074.75-.113 1.132-.113h11.598a5.804 5.804 0 0 1 3.223.977c.316.214.61.452.879.722a5.766 5.766 0 0 1 1.257 1.883c.145.351.258.714.333 1.086.074.374.109.75.109 1.132v11.602h-23.2Zm-23.203 29a5.833 5.833 0 0 1 1.699-4.101c.27-.27.562-.508.879-.723a6.03 6.03 0 0 1 1.004-.535 5.842 5.842 0 0 1 1.09-.328 5.77 5.77 0 0 1 1.128-.113h58.004a5.842 5.842 0 0 1 2.219.441c.352.148.684.324 1 .535.32.215.613.453.879.723a5.766 5.766 0 0 1 1.258 1.883 5.62 5.62 0 0 1 .441 2.218v18.09l-24.894-9.047a29.09 29.09 0 0 0-9.918-1.726c-3.407 0-6.711.574-9.918 1.726l-24.871 9.047Zm-7.207 85.946-12.993-42.278a5.678 5.678 0 0 1-.23-1.082 6.15 6.15 0 0 1-.02-1.105c.032-.371.094-.735.192-1.09.101-.36.23-.703.394-1.035a5.85 5.85 0 0 1 1.336-1.75 5.85 5.85 0 0 1 1.895-1.129l45.449-16.52c.062-.011.125-.027.187-.047v71a15.76 15.76 0 0 1-4.41-2.57 27.893 27.893 0 0 0-3.465-2.453 27.16 27.16 0 0 0-3.804-1.89 27.264 27.264 0 0 0-4.051-1.286 27.514 27.514 0 0 0-8.445-.637 27.588 27.588 0 0 0-12.035 3.872Zm52.199 2.394a15.684 15.684 0 0 1-4.406 2.57V83.852l.16.039 45.492 16.539a5.755 5.755 0 0 1 2.629 1.934 5.786 5.786 0 0 1 .926 5.234l-12.997 42.293a28.041 28.041 0 0 0-3.796-1.907 27.63 27.63 0 0 0-4.04-1.297 27.252 27.252 0 0 0-4.195-.66 27.032 27.032 0 0 0-4.246-.007 27.22 27.22 0 0 0-4.195.644c-1.383.32-2.73.75-4.047 1.281a27.116 27.116 0 0 0-3.8 1.89 27.18 27.18 0 0 0-3.466 2.45Zm0 0"/></g><path d="m214.391 120.353-3.578-11.203h-21.672l-3.578 11.203h-15.047l20.375-57.828h18.36l20.561 57.828Zm-21.578-22.672h14.328l-7.157-22.312Zm49.122-22.578c-2.387 0-4.422-.844-6.11-2.531-1.679-1.688-2.515-3.723-2.515-6.11 0-2.382.836-4.398 2.516-6.047 1.687-1.656 3.722-2.484 6.11-2.484 2.382 0 4.413.828 6.093 2.484 1.687 1.649 2.531 3.665 2.531 6.047 0 2.387-.844 4.422-2.531 6.11-1.68 1.687-3.711 2.531-6.094 2.531Zm-7.078 45.25v-40.39h14.14v40.39Zm20.476-20.203c0-3.426.473-6.485 1.422-9.172.945-2.695 2.203-4.96 3.766-6.797 1.562-1.832 3.41-3.223 5.546-4.172a16.45 16.45 0 0 1 6.704-1.422c2.695 0 5.207.555 7.53 1.657 2.321 1.093 4.22 2.777 5.688 5.047v-27.36h14.141v62.422h-14.14v-5.328c-1.47 2.273-3.368 3.96-5.688 5.062-2.324 1.094-4.836 1.641-7.531 1.641a16.45 16.45 0 0 1-6.703-1.422c-2.138-.945-3.985-2.336-5.548-4.172-1.563-1.843-2.82-4.11-3.766-6.797-.95-2.695-1.422-5.757-1.422-9.187Zm22.485-10.094c-2.625 0-4.672.965-6.141 2.89-1.469 1.93-2.203 4.329-2.203 7.204 0 2.887.734 5.293 2.203 7.219 1.469 1.93 3.515 2.89 6.14 2.89 2.446 0 4.454-.898 6.016-2.703 1.563-1.812 2.344-4.281 2.344-7.406 0-3.113-.766-5.57-2.297-7.375-1.531-1.813-3.555-2.719-6.063-2.719Zm30.569 30.297V62.525h14.234v22.672h22.578V62.525h14.235v57.828H345.2V97.587h-22.58v22.766Zm57.379-20.203c0-3.426.473-6.485 1.422-9.172.945-2.695 2.203-4.96 3.766-6.797 1.562-1.832 3.41-3.223 5.546-4.172a16.45 16.45 0 0 1 6.704-1.422c2.695 0 5.207.555 7.53 1.657 2.321 1.093 4.22 2.777 5.688 5.047v-5.329h14.141v40.391h-14.14v-5.328c-1.47 2.273-3.368 3.96-5.688 5.062-2.324 1.094-4.836 1.641-7.531 1.641a16.45 16.45 0 0 1-6.703-1.422c-2.138-.945-3.985-2.336-5.548-4.172-1.563-1.843-2.82-4.11-3.766-6.797-.95-2.695-1.422-5.757-1.422-9.187Zm22.485-10.094c-2.625 0-4.672.965-6.141 2.89-1.469 1.93-2.203 4.329-2.203 7.204 0 2.887.734 5.293 2.203 7.219 1.469 1.93 3.515 2.89 6.14 2.89 2.446 0 4.454-.883 6.016-2.656 1.563-1.781 2.344-4.266 2.344-7.453 0-3.176-.766-5.649-2.297-7.422-1.531-1.781-3.555-2.672-6.063-2.672Zm30.569 30.297v-40.39h14.14v8.078c1.344-3.126 3.223-5.477 5.641-7.063 2.426-1.594 5.164-2.39 8.219-2.39.738 0 1.441.046 2.11.14.675.086 1.226.156 1.656.219v13.86a85.825 85.825 0 0 0-3.221-.454 28.325 28.325 0 0 0-3.39-.188c-4.218 0-7.11.813-8.672 2.438-1.562 1.625-2.343 3.938-2.343 6.938v18.812Zm82.25-20.203c0 3.43-.477 6.492-1.422 9.187-.95 2.688-2.203 4.954-3.766 6.797-1.554 1.836-3.402 3.227-5.547 4.172a16.476 16.476 0 0 1-6.703 1.422c-2.687 0-5.199-.547-7.53-1.64-2.325-1.102-4.22-2.79-5.688-5.063v5.328h-14.141V57.931h14.14v27.36c1.47-2.27 3.364-3.954 5.688-5.047 2.332-1.102 4.844-1.657 7.531-1.657 2.32 0 4.555.477 6.703 1.422 2.145.95 3.993 2.34 5.547 4.172 1.563 1.836 2.817 4.102 3.766 6.797.945 2.688 1.422 5.746 1.422 9.172Zm-22.484-10.094c-2.512 0-4.532.906-6.063 2.719-1.531 1.805-2.297 4.262-2.297 7.375 0 3.125.781 5.594 2.344 7.406 1.562 1.805 3.566 2.703 6.015 2.703 2.633 0 4.688-.96 6.157-2.89 1.468-1.926 2.203-4.332 2.203-7.22 0-2.874-.734-5.273-2.203-7.202-1.469-1.926-3.524-2.89-6.157-2.89Zm48.834 31.672c-3.062 0-5.945-.523-8.64-1.563-2.688-1.039-5.027-2.507-7.016-4.406-1.98-1.894-3.554-4.172-4.718-6.828-1.168-2.664-1.75-5.594-1.75-8.781 0-3.176.582-6.094 1.75-8.75 1.164-2.664 2.754-4.945 4.765-6.844 2.02-1.894 4.375-3.363 7.063-4.406 2.695-1.04 5.547-1.563 8.547-1.563 3 0 5.843.524 8.53 1.563 2.696 1.043 5.056 2.512 7.079 4.406 2.02 1.899 3.61 4.18 4.766 6.844 1.164 2.656 1.75 5.574 1.75 8.75 0 3.187-.586 6.117-1.75 8.781-1.157 2.656-2.73 4.934-4.72 6.828-1.991 1.899-4.335 3.367-7.03 4.407-2.688 1.039-5.563 1.562-8.625 1.562Zm0-11.938c2.57 0 4.547-.898 5.922-2.703 1.375-1.8 2.063-4.113 2.063-6.937 0-2.813-.703-5.117-2.11-6.922-1.406-1.8-3.367-2.703-5.874-2.703-2.512 0-4.47.902-5.875 2.703-1.407 1.805-2.11 4.11-2.11 6.922 0 2.824.688 5.137 2.063 6.937 1.375 1.805 3.347 2.704 5.922 2.704Zm28.27 10.563v-40.39h14.14v8.078c1.344-3.126 3.223-5.477 5.641-7.063 2.426-1.594 5.164-2.39 8.219-2.39.738 0 1.441.046 2.11.14.675.086 1.226.156 1.656.219v13.86a85.825 85.825 0 0 0-3.221-.454 28.325 28.325 0 0 0-3.39-.188c-4.218 0-7.11.813-8.672 2.438-1.562 1.625-2.343 3.938-2.343 6.938v18.812Zm0 0" fill="#fff"/></svg>